<?xml version="1.0" encoding="UTF-8"?>
<!DOCTYPE svg PUBLIC "-//W3C//DTD SVG 1.1//EN" "http://www.w3.org/Graphics/SVG/1.1/DTD/svg11.dtd">
<!-- Creator: CorelDRAW X8 -->
<svg xmlns="http://www.w3.org/2000/svg" xml:space="preserve" width="55mm" height="55mm" version="1.1" style="shape-rendering:geometricPrecision; text-rendering:geometricPrecision; image-rendering:optimizeQuality; fill-rule:evenodd; clip-rule:evenodd"
viewBox="0 0 5500 5500"
 xmlns:xlink="http://www.w3.org/1999/xlink">
 <defs>
  <style type="text/css">
   <![CDATA[
    .str0 {stroke:white;stroke-width:100}
    .str1 {stroke:white;stroke-width:20}
    .fil0 {fill:none}
    .fil2 {fill:none;fill-rule:nonzero}
    .fil1 {fill:white;fill-rule:nonzero}
   ]]>
  </style>
 </defs>
 <g id="Layer_x0020_1">
  <metadata id="CorelCorpID_0Corel-Layer"/>
  <path class="fil0 str0" d="M2750 250c1381,0 2500,1119 2500,2500 0,1381 -1119,2500 -2500,2500 -1381,0 -2500,-1119 -2500,-2500 0,-1381 1119,-2500 2500,-2500z"/>
  <path class="fil0 str0" d="M349 3450l2564 -366m989 -141l1348 -193"/>
  <line class="fil0 str0" x1="2913" y1="3527" x2="2913" y2= "255" />
  <line class="fil0 str0" x1="3913" y1="3527" x2="3913" y2= "536" />
  <path class="fil1" d="M1289 4620l301 -526 160 91 -112 413 299 -305 160 92 -302 525 -98 -56 237 -414 -341 354 -102 -58 134 -473 -238 413 -98 -56zm624 327l37 -110 110 38 -38 109 -109 -37zm966 -73l-3 -103 264 -5 5 241c-25,26 -62,49 -110,69 -48,20 -97,30 -147,31 -63,2 -119,-10 -166,-36 -48,-26 -84,-63 -109,-112 -25,-49 -38,-103 -39,-161 -2,-63 10,-120 36,-169 25,-50 63,-89 113,-116 39,-21 87,-32 145,-34 75,-1 134,13 177,44 43,31 71,74 85,129l-122 26c-9,-30 -26,-53 -50,-70 -23,-16 -53,-24 -88,-24 -53,2 -96,19 -126,54 -31,35 -46,86 -44,152 1,72 19,126 51,161 33,36 75,53 127,52 25,-1 51,-7 77,-17 25,-11 47,-24 65,-38l-2 -77 -139 3zm376 171l-27 -113 114 -26 26 113 -113 26zm663 -244l-350 -495 97 -69 438 188 -234 -332 92 -65 350 495 -100 71 -430 -184 230 326 -93 65zm480 -375l-84 -80 80 -84 84 80 -80 84z"/>
  <path id="1" class="fil2 str1" d="M1289 4620l301 -526 160 91 -112 413 299 -305 160 92 -302 525 -98 -56 237 -414 -341 354 -102 -58 134 -473 -238 413 -98 -56zm624 327l37 -110 110 38 -38 109 -109 -37zm966 -73l-3 -103 264 -5 5 241c-25,26 -62,49 -110,69 -48,20 -97,30 -147,31 -63,2 -119,-10 -166,-36 -48,-26 -84,-63 -109,-112 -25,-49 -38,-103 -39,-161 -2,-63 10,-120 36,-169 25,-50 63,-89 113,-116 39,-21 87,-32 145,-34 75,-1 134,13 177,44 43,31 71,74 85,129l-122 26c-9,-30 -26,-53 -50,-70 -23,-16 -53,-24 -88,-24 -53,2 -96,19 -126,54 -31,35 -46,86 -44,152 1,72 19,126 51,161 33,36 75,53 127,52 25,-1 51,-7 77,-17 25,-11 47,-24 65,-38l-2 -77 -139 3zm376 171l-27 -113 114 -26 26 113 -113 26zm663 -244l-350 -495 97 -69 438 188 -234 -332 92 -65 350 495 -100 71 -430 -184 230 326 -93 65zm480 -375l-84 -80 80 -84 84 80 -80 84z"/>
 </g>
</svg>
